HIERARCHY
ROOT Hips
{
	OFFSET 11.2666 35.4190 -54.3259
	CHANNELS 6 Xposition Yposition Zposition Xrotation Yrotation Zrotation
	JOINT Spine
	{
		OFFSET 0.0000 8.4730 0.0000
		CHANNELS 3 Xrotation Yrotation Zrotation
		JOINT Head
		{
			OFFSET 0.0000 13.8244 0.0000
			CHANNELS 3 Xrotation Yrotation Zrotation
			End Site
			{
				OFFSET 0.0000 4.5275 0.0000
			}
		}
		JOINT LeftShoulder
		{
			OFFSET 0.0000 9.9635 0.0000
			CHANNELS 3 Xrotation Yrotation Zrotation
			JOINT LeftArm
			{
				OFFSET 7.3084 0.0000 0.0000
				CHANNELS 3 Xrotation Yrotation Zrotation
				JOINT LeftForeArm
				{
					OFFSET 10.7061 0.0000 0.0000
					CHANNELS 3 Xrotation Yrotation Zrotation
					JOINT LeftHand
					{
						OFFSET 8.4968 0.0000 0.0000
						CHANNELS 3 Xrotation Yrotation Zrotation
						JOINT LeftHandThumb1
						{
							OFFSET 0.0000 0.0000 0.0000
							CHANNELS 3 Xrotation Yrotation Zrotation
							End Site
							{
								OFFSET 0.0000 0.0000 3.9370
							}
						}
						JOINT LeftHand_End
						{
							OFFSET 3.9370 0.0000 0.0000
							CHANNELS 3 Xrotation Yrotation Zrotation
							End Site
							{
								OFFSET 0.0000 0.0000 0.0000
							}
						}
					}
				}
			}
		}
		JOINT RightShoulder
		{
			OFFSET 0.0000 9.9635 0.0000
			CHANNELS 3 Xrotation Yrotation Zrotation
			JOINT RightArm
			{
				OFFSET -7.3084 0.0000 0.0000
				CHANNELS 3 Xrotation Yrotation Zrotation
				JOINT RightForeArm
				{
					OFFSET -10.7061 0.0000 0.0000
					CHANNELS 3 Xrotation Yrotation Zrotation
					JOINT RightHand
					{
						OFFSET -8.4968 0.0000 0.0000
						CHANNELS 3 Xrotation Yrotation Zrotation
						JOINT RightHandThumb1
						{
							OFFSET 0.0000 0.0000 0.0000
							CHANNELS 3 Xrotation Yrotation Zrotation
							End Site
							{
								OFFSET 0.0000 0.0000 3.9370
							}
						}
						JOINT RightHand_End
						{
							OFFSET -3.9370 0.0000 0.0000
							CHANNELS 3 Xrotation Yrotation Zrotation
							End Site
							{
								OFFSET 0.0000 0.0000 0.0000
							}
						}
					}
				}
			}
		}
	}
	JOINT LeftUpLeg
	{
		OFFSET 4.0316 0.0000 0.0000
		CHANNELS 3 Xrotation Yrotation Zrotation
		JOINT LeftLeg
		{
			OFFSET 0.0000 -16.7874 0.0000
			CHANNELS 3 Xrotation Yrotation Zrotation
			JOINT LeftFoot
			{
				OFFSET 0.0000 -15.4942 0.0000
				CHANNELS 3 Xrotation Yrotation Zrotation
				JOINT LeftToeBase
				{
					OFFSET 0.0000 -1.4513 5.4164
					CHANNELS 3 Xrotation Yrotation Zrotation
					End Site
					{
						OFFSET 0.0000 0.0000 2.9527
					}
				}
			}
		}
	}
	JOINT RightUpLeg
	{
		OFFSET -4.0316 0.0000 0.0000
		CHANNELS 3 Xrotation Yrotation Zrotation
		JOINT RightLeg
		{
			OFFSET 0.0000 -16.7874 0.0000
			CHANNELS 3 Xrotation Yrotation Zrotation
			JOINT RightFoot
			{
				OFFSET 0.0000 -15.4942 0.0000
				CHANNELS 3 Xrotation Yrotation Zrotation
				JOINT RightToeBase
				{
					OFFSET 0.0000 -1.4513 5.4164
					CHANNELS 3 Xrotation Yrotation Zrotation
					End Site
					{
						OFFSET 0.0000 0.0000 2.9527
					}
				}
			}
		}
	}
}
MOTION
Frames: 10
Frame Time: 0.008333
-4.8650 35.8973 -163.6410 -1.2175 -0.0535 -1.7050 1.2720 1.0245 2.4144 -4.4333 -2.5140 -2.5870 2.8103 2.0413 1.0241 -0.7393 -32.2527 -81.0570 13.3085 -24.0036 5.4964 0.4003 6.4499 -3.5586 -0.0000 0.0000 -0.0000 -0.0000 0.0000 -0.0000 10.2534 1.0727 -1.1797 -6.6380 30.6714 79.3871 6.3550 19.9653 -2.1778 0.7725 -7.1485 6.1841 -0.0000 0.0000 -0.0000 -0.0000 0.0000 -0.0000 7.4278 2.8580 -0.5205 5.5509 0.0000 0.0000 -11.8931 4.9073 -1.5351 -5.2056 0.0000 0.0000 7.0771 -10.9713 -1.8567 7.3227 -0.0000 -0.0000 -9.4801 0.6167 10.4418 -7.0744 -0.0000 -0.0000 
-4.8524 35.8973 -163.5930 -1.3974 0.1418 -1.7456 1.3770 0.9489 2.3570 -4.0518 -2.1575 -2.4917 2.7731 1.8841 1.0968 -0.8465 -32.2829 -81.0379 13.4504 -23.9450 5.5442 0.3641 6.1930 -3.3716 -0.0000 0.0000 -0.0000 -0.0000 0.0000 -0.0000 10.3258 1.0049 -1.1076 -6.7582 30.7718 79.3952 6.2698 20.1151 -2.1639 0.7877 -7.2019 6.2582 -0.0000 0.0000 -0.0000 -0.0000 0.0000 -0.0000 7.7324 2.5599 -0.4819 5.4284 -0.0000 -0.0000 -11.9242 4.9790 -1.5886 -5.2267 0.0000 -0.0000 7.3763 -11.1125 -1.8136 7.3142 -0.0000 -0.0000 -9.4874 0.5767 10.4509 -7.1149 -0.0000 0.0000 
-4.8360 35.8971 -163.5880 -1.3360 0.1251 -1.7643 1.2612 0.8843 2.2891 -3.8860 -1.9816 -2.5515 2.7159 1.9154 1.0999 -0.7637 -32.7755 -80.9774 14.7694 -23.5154 6.0049 0.1990 5.5082 -2.0722 -0.0000 0.0000 -0.0000 -0.0000 0.0000 -0.0000 10.2141 1.1650 -1.0886 -6.7858 30.7844 79.4706 6.3573 20.1639 -2.1994 0.7732 -7.1237 6.2110 -0.0000 0.0000 -0.0000 -0.0000 0.0000 -0.0000 7.7220 2.2208 -0.5027 5.3389 0.0000 0.0000 -11.8734 5.2729 -1.5621 -5.4045 0.0000 -0.0000 7.2758 -10.9598 -1.8256 7.4167 0.0000 -0.0000 -9.5533 0.4401 10.4480 -7.1108 0.0000 0.0000 
-4.8329 35.8969 -163.5830 -1.2577 0.1397 -1.7601 1.1226 0.9925 2.2380 -3.7536 -1.9400 -2.6560 2.6896 1.8178 1.1097 -0.7876 -32.7111 -80.9231 14.7685 -23.5486 6.0125 0.2044 5.5403 -2.1160 -0.0000 0.0000 -0.0000 -0.0000 0.0000 -0.0000 10.2066 1.0809 -1.0535 -6.9728 30.8461 79.5319 6.3738 20.1886 -2.2077 0.7603 -6.9496 6.2587 -0.0000 0.0000 -0.0000 -0.0000 0.0000 -0.0000 7.5812 2.3310 -0.5111 5.4988 -0.0000 0.0000 -12.0517 5.2056 -1.5517 -5.2528 0.0000 -0.0000 7.1680 -10.8032 -1.8296 7.5219 -0.0000 0.0000 -9.6510 0.2613 10.4240 -7.1168 -0.0000 0.0000 
-4.8340 35.8966 -163.5890 -1.1994 -0.0054 -1.7497 1.0281 1.1810 2.1072 -3.6018 -1.6963 -2.7243 2.5779 1.7704 1.1531 -0.6871 -32.3883 -80.8828 14.6909 -23.6203 5.9967 0.2119 5.5672 -2.1831 -0.0000 0.0000 -0.0000 -0.0000 0.0000 -0.0000 10.2286 1.1576 -1.0236 -7.2825 30.1909 79.7563 6.2109 20.3938 -2.1718 0.7772 -7.2511 6.1347 -0.0000 0.0000 -0.0000 -0.0000 0.0000 -0.0000 7.5346 2.5654 -0.5403 5.4951 -0.0000 0.0000 -12.0909 5.1096 -1.5246 -5.2069 0.0000 -0.0000 7.0149 -10.7522 -1.8823 7.6394 -0.0000 -0.0000 -9.7194 0.3521 10.4945 -7.0903 -0.0000 -0.0000 
-4.8448 35.8964 -163.5500 -1.3953 0.1118 -1.7409 1.1994 1.0810 1.9851 -3.7730 -1.9621 -2.8484 2.5331 1.8143 1.2525 -0.6177 -30.5610 -81.0466 14.2175 -24.1078 5.9084 0.2129 5.4747 -2.2306 -0.0000 0.0000 -0.0000 -0.0000 0.0000 -0.0000 10.3976 1.0751 -1.0167 -8.1118 27.4339 80.4362 6.4873 20.6068 -2.2918 0.7421 -6.9305 6.1270 -0.0000 0.0000 -0.0000 -0.0000 0.0000 -0.0000 7.8989 2.2961 -0.5197 5.2449 -0.0000 -0.0000 -11.9502 5.2278 -1.5190 -5.4391 0.0000 0.0000 7.3741 -10.9290 -1.8351 7.4826 0.0000 -0.0000 -9.7100 0.4057 10.3900 -7.1321 -0.0000 0.0000 
-4.8522 35.8961 -163.5540 -1.2777 -0.0515 -1.7266 1.0019 1.2483 1.9242 -3.7726 -2.0249 -3.1228 2.7427 2.1054 1.3519 -0.9162 -27.8181 -81.4459 13.2879 -24.6788 5.6315 0.1634 5.5132 -1.6999 -0.0000 0.0000 -0.0000 -0.0000 0.0000 -0.0000 10.5263 0.8319 -1.1537 -9.0635 23.7247 81.3840 5.4393 20.7393 -1.9312 0.6102 -6.7989 5.1405 -0.0000 0.0000 -0.0000 -0.0000 0.0000 -0.0000 7.7911 2.3818 -0.5453 5.2427 -0.0000 0.0000 -11.9787 5.3349 -1.5742 -5.1906 -0.0000 -0.0000 7.1665 -10.7753 -1.8718 7.5980 0.0000 -0.0000 -9.7485 0.4082 10.4470 -7.0759 -0.0000 0.0000 
-4.8752 35.8958 -163.5530 -1.1978 -0.2428 -1.6924 0.8357 1.4592 1.7492 -3.8113 -2.0787 -3.2151 2.9063 2.5251 1.4692 -1.2072 -25.3035 -81.6260 13.0958 -24.8368 5.5808 0.1250 5.4946 -1.3054 -0.0000 0.0000 -0.0000 -0.0000 0.0000 -0.0000 10.5740 0.5074 -0.9905 -9.7873 20.9775 81.8450 4.2976 20.7369 -1.5242 0.5106 -6.6476 4.4023 -0.0000 0.0000 -0.0000 -0.0000 0.0000 -0.0000 7.6473 2.8145 -0.5595 5.4064 -0.0000 0.0000 -11.9613 5.0873 -1.5611 -5.3167 -0.0000 0.0000 7.0027 -10.5134 -1.8884 7.7081 -0.0000 0.0000 -9.7731 0.3234 10.3575 -7.1114 -0.0000 0.0000 
-4.8997 35.8955 -163.5410 -1.2266 -0.2555 -1.6995 0.7448 1.5415 1.6652 -3.5927 -1.8222 -3.3217 3.0940 2.7474 1.4637 -1.2627 -23.6170 -81.3486 13.3284 -24.7368 5.6616 0.1388 5.6903 -1.3998 -0.0000 0.0000 -0.0000 -0.0000 0.0000 -0.0000 10.5012 0.3027 -0.8701 -10.0441 19.7893 81.8475 3.8688 20.7400 -1.3719 0.5227 -6.8378 4.3820 -0.0000 0.0000 -0.0000 -0.0000 0.0000 -0.0000 7.7091 2.6533 -0.5153 5.3855 0.0000 -0.0000 -11.9805 5.2895 -1.6374 -5.1728 -0.0000 0.0000 7.0780 -10.6128 -1.8459 7.6691 -0.0000 0.0000 -9.7903 0.4450 10.3457 -7.0855 0.0000 0.0000 
-4.9353 35.8953 -163.4830 -1.5684 0.0805 -1.7242 0.9224 1.2485 1.6451 -3.4315 -1.8081 -3.5303 3.2082 2.7696 1.4517 -1.0875 -22.8516 -80.6712 12.4757 -24.5710 5.2564 0.2573 6.4214 -2.2992 -0.0000 0.0000 -0.0000 -0.0000 0.0000 -0.0000 10.6178 0.4185 -0.8909 -10.1645 19.8999 81.5675 4.2783 20.6819 -1.5135 0.5193 -6.7984 4.3781 -0.0000 0.0000 -0.0000 -0.0000 0.0000 -0.0000 8.1757 2.4785 -0.3885 5.2557 0.0000 0.0000 -11.9595 5.1414 -1.6442 -5.2723 0.0000 -0.0000 7.7604 -11.0914 -1.6880 7.3019 -0.0000 -0.0000 -9.6534 0.5983 10.2061 -7.2570 -0.0000 -0.0000 
